<svg width="35" height="35" viewBox="0 0 35 35" fill="none" xmlns="http://www.w3.org/2000/svg">
<path d="M17.5 35C27.165 35 35 27.165 35 17.5C35 7.83502 27.165 0 17.5 0C7.83502 0 0 7.83502 0 17.5C0 27.165 7.83502 35 17.5 35Z" fill="#51C85D"/>
<path d="M26.748 17.0081C26.8079 19.0544 26.1558 21.058 24.903 22.6771C23.6313 24.3295 21.8 25.4607 19.753 25.8581C18.1607 26.1814 16.5095 26.0504 14.988 25.4801C14.6418 25.3542 14.3055 25.2024 13.982 25.0261C13.9388 24.9997 13.89 24.9836 13.8395 24.9793C13.789 24.975 13.7382 24.9824 13.691 25.0011C12.2204 25.4771 10.747 25.9491 9.27103 26.4171C9.20603 26.4391 9.11803 26.5011 9.07103 26.4531C9.02403 26.4051 9.08603 26.3081 9.10703 26.2391C9.40103 25.3641 9.69503 24.4851 9.99303 23.6101C10.175 23.0761 10.349 22.5461 10.538 22.0161C10.5623 21.9557 10.571 21.8901 10.5633 21.8255C10.5557 21.7608 10.5318 21.6991 10.494 21.6461C10.1239 21.0071 9.83944 20.3223 9.64803 19.6091C9.34518 18.4869 9.26997 17.3154 9.42683 16.1636C9.58369 15.0119 9.96944 13.9031 10.5614 12.9028C11.1533 11.9024 11.9394 11.0306 12.8735 10.3387C13.8075 9.6468 14.8706 9.14882 16 8.87409C17.295 8.55883 18.6453 8.54622 19.946 8.83722C21.2467 9.12823 22.4628 9.71503 23.5 10.5521C24.7208 11.5386 25.6535 12.8357 26.2 14.3071C26.514 15.1757 26.6987 16.0858 26.748 17.0081ZM11.285 24.2601C12.185 23.9691 13.046 23.6931 13.9 23.4141C13.9491 23.3947 14.0022 23.3879 14.0546 23.3942C14.1069 23.4005 14.1569 23.4197 14.2 23.4501C14.5293 23.6645 14.8782 23.847 15.242 23.9951C16.3977 24.4967 17.6676 24.6761 18.917 24.5141C20.6277 24.2999 22.2064 23.4841 23.3707 22.2127C24.535 20.9412 25.2089 19.297 25.272 17.5741C25.3327 15.7412 24.6971 13.9533 23.493 12.57C22.289 11.1867 20.6058 10.3107 18.782 10.1181C17.2232 9.94381 15.6508 10.2958 14.315 11.1181C13.102 11.848 12.1295 12.9173 11.5176 14.1939C10.9057 15.4705 10.6813 16.8983 10.872 18.3011C11.0167 19.4211 11.4317 20.4891 12.081 21.4131C12.1173 21.4562 12.1412 21.5084 12.1501 21.5641C12.1591 21.6197 12.1529 21.6767 12.132 21.7291C11.998 22.0991 11.878 22.4731 11.751 22.8441C11.601 23.3051 11.455 23.7621 11.285 24.2601Z" fill="white"/>
<path d="M13.699 15.2981C13.6922 14.9163 13.7693 14.5375 13.9248 14.1887C14.0803 13.8398 14.3105 13.5294 14.599 13.2791C14.6885 13.197 14.7955 13.1363 14.9119 13.1016C15.0284 13.0669 15.1512 13.0593 15.271 13.0791C15.3792 13.096 15.4887 13.102 15.598 13.0971C15.6864 13.0875 15.7754 13.1086 15.8501 13.1568C15.9247 13.2051 15.9805 13.2776 16.008 13.3621C16.251 13.9941 16.487 14.6261 16.723 15.2621C16.803 15.4801 16.665 15.6511 16.549 15.8071C16.4091 15.9887 16.256 16.1599 16.091 16.3191C15.928 16.4861 15.906 16.5801 16.018 16.7841C16.6386 17.9672 17.6353 18.9101 18.851 19.4641C18.895 19.4821 18.938 19.5081 18.982 19.5291C19.0539 19.5705 19.1384 19.5845 19.2198 19.5685C19.3012 19.5525 19.3741 19.5076 19.425 19.4421C19.657 19.1701 19.912 18.9191 20.125 18.6321C20.267 18.4431 20.365 18.4101 20.579 18.5051C21.218 18.7811 21.817 19.1301 22.427 19.4671C22.4782 19.494 22.5199 19.5359 22.5466 19.5873C22.5732 19.6386 22.5835 19.6968 22.576 19.7541C22.5771 20.2267 22.4002 20.6823 22.0806 21.0303C21.7609 21.3783 21.3219 21.5932 20.851 21.6321C20.3486 21.7193 19.8317 21.6549 19.366 21.4471C18.3485 21.126 17.4018 20.6131 16.577 19.9361C15.9315 19.3675 15.3603 18.7198 14.877 18.0081C14.4763 17.4762 14.15 16.8922 13.907 16.2721C13.7832 15.9615 13.7129 15.6322 13.699 15.2981Z" fill="white"/>
</svg>
